<?xml version="1.0"?>
<svg xmlns="http://www.w3.org/2000/svg" viewBox="-7 -49 360 96" font-weight="bold" fill="#fff" stroke-linecap="round">
<path d="M3-4H43V34H3ZL23-39L43-4L3,36M103-4H143V34H103ZL123-39L143-4L103,36M203-4H243V34H203ZL223-39L243-4L203,36M303-4H343V34H303ZL323-39L343-4L303,36M60-4h25m-7-4l7,4l-7,4M160-4h25m-7-4l7,4l-7,4M260-4h25m-7-4l7,4l-7,4" stroke="#000"/>
<path d="M3-4H44M3,36H44M143-4L123-39M103-4V37M243-4L223-39M203-4V37M303-4H344M303,36H344M343-4L323-39" stroke="#000" stroke-dasharray="0,40" stroke-width="16"/>
<path d="M23-39H0M143,36H244" stroke="#c00" stroke-dasharray="0,100" stroke-width="18"/>
<text x="20" y="-35">3</text>
<text x="40">0</text>
<text x="40" y="40">4</text>
<text y="40">0</text>
<text>1</text>
<text x="120" y="-35">1</text>
<text x="140">1</text>
<text x="140" y="40">4</text>
<text x="100" y="40">0</text>
<text x="100">2</text>
<text x="220" y="-35">1</text>
<text x="240">2</text>
<text x="240" y="40">2</text>
<text x="200" y="40">1</text>
<text x="200">2</text>
<text x="320" y="-35">1</text>
<text x="340">3</text>
<text x="340" y="40">0</text>
<text x="300" y="40">2</text>
<text x="300">2</text>
</svg>