<svg width="190mm" height="110mm" version="1.1" viewBox="0 0 190 110" xmlns="http://www.w3.org/2000/svg" xmlns:xlink="http://www.w3.org/1999/xlink"><rect x="-15" y="-15" width="220" height="140" fill="#ff0"/>
 <g id="a" fill="#be1"><rect x="-15" y="-15" width="20" height="20"/><rect x="25" y="-15" width="20" height="20"/><rect x="65" y="-15" width="20" height="20"/><rect x="105" y="-15" width="20" height="20"/><rect x="145" y="-15" width="20" height="20"/><rect x="185" y="-15" width="20" height="20"/></g>
 <use transform="translate(20 20)" xlink:href="#a"/><use transform="translate(0 40)" xlink:href="#a"/><use transform="translate(20 60)" xlink:href="#a"/><use transform="translate(0 80)" xlink:href="#a"/><use transform="translate(20 100)" xlink:href="#a"/><use transform="translate(0 120)" xlink:href="#a"/><path d="m185 125 0-140m-20 140 0-140m-40 140 0-140m20 140 0-140m-40 140 0-140m-20 140 0-140m-20 140 0-140m-20 140 0-140m-20 140 0-140m-20 140l0-140m-20 120h220m-220-20h220m-220-20h220m-220-20h220m-220-20h220m-220-20h220" stroke="#000" stroke-width=".5"/><rect width="190" height="110" fill="none" stroke="#000" stroke-width="1.5"/></svg>